<svg width="106" height="19" viewBox="0 0 106 19" fill="none" xmlns="http://www.w3.org/2000/svg">
<path d="M9.19726 15.8961L4.02859 18.9193C3.6385 19.1631 3.15089 18.8218 3.19966 18.3342L4.36992 12.239C4.41868 12.0927 4.36992 11.8977 4.22364 11.8002L0.127709 7.11911C-0.164857 6.77779 0.0789479 6.19265 0.517797 6.19265H5.34514C5.54019 6.19265 5.73523 6.09513 5.83275 5.90009L9.00222 0.292566C9.19726 -0.0975221 9.73364 -0.0975221 9.92868 0.292566L13.1469 5.90009C13.2444 6.09513 13.4395 6.19265 13.6345 6.19265H18.4619C18.9495 6.19265 19.1933 6.72903 18.852 7.11911L14.756 11.8002C14.6585 11.9465 14.6097 12.0927 14.6097 12.239L15.7312 18.3342C15.8288 18.773 15.3412 19.1631 14.9023 18.9193L9.73364 15.8961C9.58735 15.7986 9.39231 15.7986 9.19726 15.8961Z" fill="#151517"/>
<path d="M30.7494 15.8961L25.5807 18.9193C25.1906 19.1631 24.703 18.8218 24.7518 18.3342L25.8733 12.239C25.922 12.0927 25.8733 11.8977 25.727 11.8002L21.6311 7.11911C21.3385 6.77779 21.5823 6.19265 22.0211 6.19265H26.8485C27.0435 6.19265 27.2386 6.09513 27.3361 5.90009L30.5056 0.292566C30.7006 -0.0975221 31.237 -0.0975221 31.432 0.292566L34.6015 5.90009C34.699 6.09513 34.8941 6.19265 35.0891 6.19265H39.9652C40.4528 6.19265 40.6966 6.72903 40.3553 7.11911L36.2594 11.8002C36.1618 11.9465 36.1131 12.0927 36.1131 12.239L37.2346 18.3342C37.3321 18.773 36.8445 19.1631 36.4056 18.9193L31.237 15.8961C31.1395 15.7986 30.8956 15.7986 30.7494 15.8961Z" fill="#151517"/>
<path d="M52.0097 15.8961L46.841 18.9193C46.4509 19.1631 45.9633 18.8218 46.0121 18.3342L47.1336 12.239C47.1824 12.0927 47.1336 11.8977 46.9873 11.8002L42.8914 7.11911C42.5988 6.77779 42.8426 6.19265 43.2815 6.19265H48.1088C48.3039 6.19265 48.4989 6.09513 48.5964 5.90009L51.7659 0.292566C51.9609 -0.0975221 52.4973 -0.0975221 52.6924 0.292566L55.8618 5.90009C55.9593 6.09513 56.1544 6.19265 56.3494 6.19265H61.1768C61.6644 6.19265 61.9082 6.72903 61.5669 7.11911L57.4709 11.8002C57.3734 11.9465 57.3247 12.0927 57.3247 12.239L58.4462 18.3342C58.5437 18.773 58.0561 19.1631 57.6172 18.9193L52.4485 15.8961C52.3998 15.7986 52.2047 15.7986 52.0097 15.8961Z" fill="#151517"/>
<path d="M74.0499 15.8961L68.8812 18.9193C68.4911 19.1631 68.0035 18.8218 68.0523 18.3342L69.1738 12.239C69.2225 12.0927 69.1738 11.8977 69.0275 11.8002L64.9315 7.11911C64.639 6.77779 64.8828 6.19265 65.3216 6.19265H70.149C70.344 6.19265 70.5391 6.09513 70.6366 5.90009L73.8061 0.292566C74.0011 -0.0975221 74.5375 -0.0975221 74.7325 0.292566L77.902 5.90009C77.9995 6.09513 78.1946 6.19265 78.3896 6.19265H83.2169C83.7045 6.19265 83.9484 6.72903 83.607 7.11911L79.5111 11.8002C79.4136 11.9465 79.3648 12.0927 79.3648 12.239L80.4863 18.3342C80.5838 18.773 80.0962 19.1631 79.6574 18.9193L74.5862 15.8961C74.4399 15.7986 74.2449 15.7986 74.0499 15.8961Z" fill="#151517"/>
<path d="M95.2603 15.8961L90.0916 18.9193C89.7016 19.1631 89.2139 18.8218 89.2627 18.3342L90.3842 12.239C90.433 12.0927 90.3842 11.8977 90.2379 11.8002L86.142 7.11911C85.8494 6.77779 86.0932 6.19265 86.5321 6.19265H91.3594C91.5545 6.19265 91.7495 6.09513 91.847 5.90009L95.0653 0.292566C95.2603 -0.0975221 95.7967 -0.0975221 95.9917 0.292566L99.1612 5.90009C99.2587 6.09513 99.4538 6.19265 99.6488 6.19265H104.476C104.964 6.19265 105.208 6.72903 104.866 7.11911L100.77 11.8002C100.673 11.9465 100.624 12.0927 100.624 12.239L101.746 18.3342C101.843 18.773 101.355 19.1631 100.917 18.9193L95.7479 15.8961C95.6504 15.7986 95.4554 15.7986 95.2603 15.8961Z" fill="#151517"/>
</svg>
